<svg xmlns="http://www.w3.org/2000/svg" viewBox="0 0 180 180" width="180" height="180" fill="none">
  <rect x="0" y="0" width="180" height="180" rx="40" fill="#0f0d0a"/>
  <g transform="translate(36 36) scale(1.6875)">
    <rect x="8" y="10" width="11" height="44" rx="1.4" fill="#f3ede0"/>
    <rect x="10.5" y="16" width="6" height="1.2" fill="#15140f" opacity="0.55"/>
    <rect x="10.5" y="46" width="6" height="1.2" fill="#15140f" opacity="0.55"/>
    <rect x="23" y="26" width="3.2" height="28" rx="1.2" fill="#c4423a"/>
    <rect x="27.6" y="18" width="3.2" height="36" rx="1.2" fill="#d68a2c"/>
    <rect x="32.2" y="12" width="3.2" height="42" rx="1.2" fill="#e8c14a"/>
    <rect x="36.8" y="24" width="3.2" height="30" rx="1.2" fill="#5a8a4f"/>
    <rect x="41.4" y="10" width="3.2" height="44" rx="1.2" fill="#3b6f93"/>
    <rect x="46" y="20" width="3.2" height="34" rx="1.2" fill="#6b4a8a"/>
    <rect x="50.6" y="30" width="3.2" height="24" rx="1.2" fill="#b34d6e"/>
    <line x1="6" y1="55.6" x2="58" y2="55.6" stroke="#f3ede0" stroke-width="1.4" stroke-linecap="round" opacity="0.7"/>
  </g>
</svg>
